<?xml version="1.0" encoding="UTF-8" standalone="no"?>
<svg
   xmlns:dc="http://purl.org/dc/elements/1.1/"
   xmlns:cc="http://creativecommons.org/ns#"
   xmlns:rdf="http://www.w3.org/1999/02/22-rdf-syntax-ns#"
   xmlns:svg="http://www.w3.org/2000/svg"
   xmlns="http://www.w3.org/2000/svg"
   xmlns:sodipodi="http://sodipodi.sourceforge.net/DTD/sodipodi-0.dtd"
   xmlns:inkscape="http://www.inkscape.org/namespaces/inkscape"
   inkscape:version="1.0beta1 (32d4812, 2019-09-19)"
   sodipodi:docname="kubernets.svg"
   id="svg16"
   version="1.1"
   preserveAspectRatio="xMidYMid"
   viewBox="0 0 256 249"
   height="2432"
   width="2500">
  <metadata
     id="metadata22">
    <rdf:RDF>
      <cc:Work
         rdf:about="">
        <dc:format>image/svg+xml</dc:format>
        <dc:type
           rdf:resource="http://purl.org/dc/dcmitype/StillImage" />
      </cc:Work>
    </rdf:RDF>
  </metadata>
  <defs
     id="defs20" />
  <sodipodi:namedview
     inkscape:current-layer="svg16"
     inkscape:window-maximized="0"
     inkscape:window-y="23"
     inkscape:window-x="0"
     inkscape:cy="470.71388"
     inkscape:cx="108.10306"
     inkscape:zoom="0.15895157"
     showgrid="false"
     id="namedview18"
     inkscape:window-height="907"
     inkscape:window-width="1600"
     inkscape:pageshadow="2"
     inkscape:pageopacity="0"
     guidetolerance="10"
     gridtolerance="10"
     objecttolerance="10"
     borderopacity="1"
     inkscape:document-rotation="0"
     bordercolor="#666666"
     pagecolor="#ffffff" />
  <path
     style="stroke-width:0.793189"
     inkscape:connector-curvature="0"
     id="path10"
     fill="#326DE6"
     d="m 91.631954,220.03345 c -4.716302,0 -9.170059,-2.09561 -12.183384,-5.89498 L 33.598275,157.1518 C 30.58495,153.35242 29.406271,148.50604 30.58495,143.78894 L 46.960338,72.654158 c 1.047803,-4.716303 4.192005,-8.515678 8.515678,-10.611284 L 121.76362,30.339106 c 2.0964,-1.047009 4.45455,-1.571307 6.8127,-1.571307 2.35815,0 4.71551,0.523505 6.81191,1.572101 l 66.2884,31.572098 c 4.32288,2.095605 7.46708,5.894981 8.51488,10.611283 l 16.37539,71.134779 c 1.0486,4.71631 0,9.56349 -3.01253,13.36286 l -45.85188,56.98667 c -3.01333,3.66771 -7.46708,5.89498 -12.18339,5.89498 l -73.885559,0.13088 z" />
  <path
     style="stroke-width:0.793189"
     inkscape:connector-curvature="0"
     id="path12"
     fill="#FFF"
     d="m 128.44386,32.042877 c 1.83465,0 3.6685,0.392628 5.37148,1.178679 l 66.28839,31.572098 c 3.40596,1.702977 6.02586,4.847178 6.81191,8.515678 l 16.37539,71.134788 c 0.91693,3.79937 0,7.72962 -2.48903,10.74216 l -45.85108,56.98746 c -2.35816,3.01253 -6.02666,4.71551 -9.82524,4.71551 H 91.631954 c -3.799375,0 -7.467082,-1.70298 -9.825233,-4.71551 L 35.955633,155.18628 c -2.358151,-3.01254 -3.275871,-6.94279 -2.489027,-10.74216 L 49.841994,73.309332 c 0.916927,-3.799376 3.405954,-6.943577 6.811908,-8.515678 L 122.94309,33.091473 c 1.70298,-0.655175 3.66771,-1.047803 5.50156,-1.047803 z m 0,-6.157527 c -2.75078,0 -5.50156,0.655174 -8.12226,1.833853 L 54.033999,59.422971 c -5.240601,2.489027 -8.908307,7.07366 -10.218655,12.706889 l -16.375389,71.13558 c -1.309555,5.63323 0,11.39733 3.668499,15.98276 l 45.851089,56.98667 c 3.537623,4.45375 8.908306,6.94278 14.541535,6.94278 h 73.492932 c 5.63323,0 11.00471,-2.48903 14.54154,-6.94278 l 45.85188,-56.98747 c 3.66771,-4.45375 4.97805,-10.34873 3.66771,-15.98276 L 212.67975,72.12986 C 211.37019,66.496631 207.70169,61.911998 202.46189,59.422971 L 136.43524,27.71841 c -2.48903,-1.177886 -5.23981,-1.83306 -7.99138,-1.83306 z" />
  <path
     style="stroke-width:0.793189"
     inkscape:connector-curvature="0"
     id="path14"
     fill="#FFF"
     d="m 194.86313,138.81089 c -0.13087,0 -0.13087,0 0,0 h -0.13087 c -0.13088,0 -0.26175,0 -0.26175,-0.13088 -0.26176,0 -0.52351,-0.13088 -0.78605,-0.13088 -0.91693,-0.13087 -1.70298,-0.26175 -2.48903,-0.26175 -0.39342,0 -0.78605,0 -1.31035,-0.13167 h -0.13088 c -2.75078,-0.26175 -4.97805,-0.5235 -7.07445,-1.17868 -0.91693,-0.39342 -1.17868,-0.91692 -1.44122,-1.44122 0,-0.13088 -0.13088,-0.13088 -0.13088,-0.26175 l -1.70298,-0.52351 a 51.819043,51.819043 0 0 0 -0.91692,-18.47258 53.97969,53.97969 0 0 0 -7.33621,-17.161438 l 1.31035,-1.178679 v -0.261752 c 0,-0.655175 0.13087,-1.310349 0.65438,-1.965523 1.5721,-1.441225 3.53762,-2.619904 5.89577,-4.061128 0.39263,-0.261753 0.78526,-0.392629 1.17868,-0.655174 0.78605,-0.392629 1.44123,-0.785257 2.22728,-1.309555 0.13087,-0.130877 0.39263,-0.261753 0.65517,-0.523505 0.13088,-0.13167 0.26175,-0.13167 0.26175,-0.262546 1.83386,-1.572101 2.22728,-4.192004 0.91693,-5.895774 -0.65517,-0.916927 -1.83385,-1.440432 -3.01332,-1.440432 -1.04701,0 -1.96473,0.392629 -2.88166,1.047803 l -0.26175,0.261752 c -0.26176,0.130877 -0.39342,0.393422 -0.65518,0.524298 -0.65517,0.655175 -1.17947,1.178679 -1.70297,1.833854 -0.26176,0.261752 -0.52351,0.655174 -0.91693,0.916926 -1.83465,1.965523 -3.53762,3.537624 -5.2406,4.716303 -0.39263,0.261752 -0.78526,0.393421 -1.17868,0.393421 -0.26175,0 -0.5243,0 -0.78605,-0.131669 h -0.26175 l -1.5729,1.048596 c -1.70297,-1.833853 -3.53683,-3.405954 -5.37068,-4.978055 A 52.317166,52.317166 0 0 0 133.02929,76.321864 l -0.13088,-1.702977 -0.26175,-0.261752 c -0.39342,-0.393422 -0.91693,-0.786051 -1.0486,-1.702977 -0.13087,-2.096399 0.13167,-4.45455 0.39342,-7.074454 v -0.130876 c 0,-0.393422 0.13088,-0.916927 0.26176,-1.310348 0.13087,-0.785258 0.26175,-1.572101 0.39342,-2.489028 v -1.178679 c 0,-2.358151 -1.83465,-4.32288 -4.06113,-4.32288 -1.0486,0 -2.0964,0.523505 -2.88245,1.309555 -0.78526,0.78605 -1.17868,1.833853 -1.17868,3.013325 v 1.047803 c 0,0.916927 0.13088,1.702977 0.39263,2.489027 0.13088,0.393422 0.13088,0.786051 0.26175,1.310349 v 0.130876 c 0.26175,2.619904 0.65518,4.978055 0.39342,7.074453 -0.13087,0.916927 -0.65517,1.309556 -1.0478,1.702977 l -0.26175,0.261753 -0.13167,1.702977 c -2.35815,0.261752 -4.7163,0.523505 -7.07445,1.047803 -10.08699,2.227275 -18.995296,7.336999 -25.93808,14.672411 l -1.310349,-0.916926 h -0.261752 c -0.261753,0 -0.524298,0.130876 -0.786051,0.130876 -0.393421,0 -0.78605,-0.130876 -1.179472,-0.392629 -1.702977,-1.178679 -3.405954,-2.882449 -5.239807,-4.847178 -0.261752,-0.261753 -0.523505,-0.655174 -0.916926,-0.916927 -0.524298,-0.655174 -1.048596,-1.179472 -1.703771,-1.833853 -0.130876,-0.131669 -0.392628,-0.261752 -0.654381,-0.524298 -0.130876,-0.130876 -0.261752,-0.130876 -0.261752,-0.261752 A 4.5782874,4.5782874 0 0 0 75.91174,81.299919 c -1.179472,0 -2.358151,0.524298 -3.013325,1.441224 -1.310349,1.702977 -0.916927,4.322881 0.916926,5.894982 0.130876,0 0.130876,0.131669 0.261753,0.131669 0.261752,0.130876 0.393421,0.392629 0.655174,0.523505 0.78605,0.523505 1.441224,0.916926 2.227275,1.310348 0.393421,0.130876 0.78605,0.392629 1.179472,0.655174 2.357358,1.440432 4.32288,2.619904 5.894981,4.061128 0.655174,0.654381 0.655174,1.309556 0.655174,1.96473 v 0.261752 l 1.309555,1.179472 c -0.261752,0.392629 -0.523504,0.655175 -0.655174,1.047803 -6.550155,10.349534 -9.039183,22.532914 -7.336206,34.585424 l -1.702977,0.5235 c 0,0.13167 -0.130876,0.13167 -0.130876,0.26176 -0.261752,0.52429 -0.655174,1.04859 -1.441224,1.44122 -1.96473,0.65518 -4.322881,0.91772 -7.073661,1.17947 h -0.131669 c -0.392629,0 -0.916927,0 -1.309555,0.13088 -0.78605,0 -1.572101,0.13088 -2.489027,0.26175 -0.261753,0 -0.523505,0.13167 -0.786051,0.13167 -0.130876,0 -0.261752,0 -0.393422,0.13088 -2.358151,0.5235 -3.799375,2.75078 -3.405954,4.84638 0.393422,1.83465 2.096399,3.01412 4.192005,3.01412 0.393422,0 0.655174,0 1.048596,-0.13167 0.130876,0 0.261752,0 0.261752,-0.13087 0.261753,0 0.523505,-0.13088 0.785257,-0.13088 0.91772,-0.26175 1.572894,-0.5235 2.358945,-0.91693 0.392628,-0.13087 0.785257,-0.39342 1.178679,-0.5235 h 0.130876 c 2.489027,-0.91772 4.716302,-1.70377 6.812701,-1.96552 h 0.261752 c 0.786051,0 1.310349,0.39262 1.702977,0.65517 0.130876,0 0.130876,0.13088 0.261753,0.13088 l 1.834646,-0.26176 c 3.144202,9.69357 9.170059,18.34012 17.161439,24.62853 1.833853,1.44043 3.667703,2.6199 5.633233,3.79937 l -0.78605,1.70218 c 0,0.13167 0.13087,0.13167 0.13087,0.26176 0.26175,0.52429 0.52351,1.17947 0.26175,2.0964 -0.78525,1.96552 -1.96473,3.93025 -3.40595,6.15752 v 0.13088 c -0.261752,0.39342 -0.523505,0.65517 -0.785257,1.0478 -0.524298,0.65518 -0.91772,1.31035 -1.442018,2.0964 -0.130876,0.13088 -0.261752,0.39263 -0.392628,0.65517 0,0.13088 -0.130877,0.26176 -0.130877,0.26176 -1.047802,2.22727 -0.261752,4.7163 1.702977,5.63323 0.523505,0.26175 1.047803,0.39342 1.572101,0.39342 1.572102,0 3.144202,-1.0486 3.930252,-2.48982 0,-0.13088 0.13088,-0.26176 0.13088,-0.26176 0.13087,-0.26175 0.26175,-0.5235 0.39262,-0.65517 0.39343,-0.91693 0.5243,-1.5721 0.78606,-2.35815 l 0.39342,-1.17868 c 0.91692,-2.6199 1.5721,-4.7163 2.75078,-6.55016 0.5235,-0.78605 1.17947,-0.91692 1.70297,-1.17947 0.13088,0 0.13088,0 0.26176,-0.13087 l 0.91772,-1.70298 c 5.7641,2.22727 12.0525,3.40595 18.34011,3.40595 3.79938,0 7.72963,-0.39263 11.39813,-1.30955 a 58.221665,58.221665 0 0 0 6.81191,-1.96552 l 0.78526,1.44122 c 0.13167,0 0.13167,0 0.26254,0.13088 0.65518,0.13087 1.17868,0.39342 1.70298,1.17947 1.0478,1.83385 1.83385,4.06113 2.75078,6.55015 v 0.13088 l 0.39342,1.17868 c 0.26175,0.78605 0.39263,1.5721 0.78526,2.35815 0.13167,0.26175 0.26254,0.39342 0.39342,0.65517 0,0.13088 0.13167,0.26176 0.13167,0.26176 0.78526,1.5721 2.35736,2.48982 3.92946,2.48982 0.5243,0 1.04859,-0.13167 1.5721,-0.39342 0.91692,-0.52351 1.70298,-1.31035 1.96552,-2.35816 0.26175,-1.0478 0.26175,-2.22727 -0.26175,-3.27507 0,-0.13088 -0.13167,-0.13088 -0.13167,-0.26176 -0.13088,-0.26175 -0.26175,-0.5235 -0.39263,-0.65517 -0.39342,-0.78605 -0.91693,-1.44122 -1.44122,-2.0964 -0.26176,-0.39263 -0.52351,-0.65438 -0.78526,-1.04701 v -0.13167 c -1.44202,-2.22727 -2.75237,-4.192 -3.40675,-6.15752 -0.26175,-0.91693 0,-1.44044 0.13088,-2.09561 0,-0.13088 0.13087,-0.13088 0.13087,-0.26175 l -0.65517,-1.5721 c 6.94358,-4.06113 12.83856,-9.82603 17.29311,-16.89969 2.35815,-3.6685 4.192,-7.72963 5.50156,-11.79076 l 1.5721,0.26176 c 0.13167,0 0.13167,-0.13088 0.26175,-0.13088 0.5243,-0.26175 0.91772,-0.65438 1.70377,-0.65438 h 0.26175 c 2.0964,0.26175 4.32288,1.04701 6.8127,1.96473 h 0.13088 c 0.39263,0.13088 0.78526,0.39263 1.17868,0.5235 0.78605,0.39343 1.44122,0.65518 2.35815,0.91772 0.26175,0 0.52351,0.13088 0.78605,0.13088 0.13088,0 0.26175,0 0.39263,0.13088 0.39342,0.13087 0.65517,0.13087 1.0486,0.13087 1.96472,0 3.6677,-1.30955 4.192,-3.01253 0,-1.5721 -1.44122,-3.6685 -3.79938,-4.32288 z m -60.65517,-6.41928 -5.7641,2.75157 -5.76411,-2.75157 -1.44043,-6.15674 3.92946,-4.97805 h 6.41928 l 3.93025,4.97805 -1.30955,6.15674 z m 34.1928,-13.62382 a 41.307701,41.307701 0 0 1 0.91693,13.2304 l -20.04389,-5.76332 c -1.83385,-0.5235 -2.88166,-2.35815 -2.48903,-4.192 0.13088,-0.5243 0.39342,-1.0486 0.78605,-1.44123 l 15.85189,-14.27978 c 2.22648,3.6685 3.92945,7.86051 4.97805,12.44514 z M 157.1343,98.462151 139.97286,110.64554 c -1.44122,0.91692 -3.40674,0.65438 -4.58542,-0.78606 -0.39263,-0.39342 -0.52351,-0.91771 -0.65518,-1.44122 L 133.55358,87.064024 A 39.762569,39.762569 0 0 1 157.1343,98.462151 Z M 119.14292,87.718405 c 1.44123,-0.261753 2.75078,-0.523505 4.19201,-0.785257 l -1.17868,20.960022 c -0.13088,1.83385 -1.5721,3.40595 -3.53762,3.40595 -0.52351,0 -1.17868,-0.13087 -1.5721,-0.39263 L 99.623334,98.462151 c 5.371476,-5.371477 12.052506,-9.039976 19.519586,-10.742953 z m -25.807989,18.602665 15.589339,13.88636 c 1.44122,1.17947 1.5721,3.40595 0.39342,4.84718 -0.39342,0.5235 -0.91693,0.91692 -1.5721,1.04859 l -20.30564,5.89499 c -0.78605,-8.90831 1.178679,-17.94749 5.894981,-25.67712 z m -3.537623,35.50235 20.830732,-3.53762 c 1.70298,-0.13088 3.27508,1.04859 3.66771,2.75157 0.13087,0.78526 0.13087,1.44122 -0.13088,2.0964 l -7.99138,19.25704 c -7.336206,-4.7163 -13.231187,-11.92163 -16.375389,-20.56739 z m 47.817402,26.06974 c -3.01332,0.65518 -6.02665,1.04781 -9.17085,1.04781 -4.58463,0 -9.03918,-0.78526 -13.23039,-2.09561 l 10.34873,-18.73354 c 1.04781,-1.17947 2.75078,-1.70298 4.19201,-0.91692 a 5.5840512,5.5840512 0 0 1 1.5721,1.44043 l 10.08698,18.21003 c -1.17867,0.39263 -2.48902,0.65518 -3.79937,1.0478 z m 25.54545,-18.20924 c -3.27508,5.23981 -7.59875,9.43181 -12.57601,12.70689 l -8.25314,-19.78213 c -0.39342,-1.57131 0.26176,-3.27429 1.83386,-4.06113 0.5235,-0.26175 1.17868,-0.39263 1.83385,-0.39263 l 20.96082,3.53762 c -0.78606,2.88166 -2.0964,5.50236 -3.79938,7.99138 z" />
</svg>
